<svg xmlns="http://www.w3.org/2000/svg" shape-rendering="geometricPrecision" text-rendering="geometricPrecision" image-rendering="optimizeQuality" fill-rule="evenodd" clip-rule="evenodd" viewBox="0 0 512 442.98"><path fill="#5F3428" fill-rule="nonzero" d="M47.32 343.03c-32.64-52.49-38.53-121.82 2.35-202.65L51 24c.08-10.59 8.73-19.1 19.31-19.02 5.07.04 9.66 2.04 13.06 5.28l.02-.02 54.67 52.24c38.72-15.22 77.82-23.42 117.31-23.76 39.61-.34 79.34 7.27 119.21 23.67l60.87-57.17c7.72-7.27 19.87-6.9 27.13.82 3.85 4.09 5.56 9.42 5.16 14.6l-3.39 119.63c22.76 40.36 32.4 76.95 31.53 110.52-.92 35.73-13.57 67.41-34.87 96.07-94.46 127.08-330.15 130.51-413.69-3.83z"/><path fill="#FCC680" d="M70.17 24.15L133.85 85c80.7-34.74 162.2-37.56 244.7 0l70.05-65.8-3.57 125.92c45.69 78.02 38.61 139.13.57 190.32C304.86 524.79-64.73 400.35 68.78 145.12l1.39-120.97z"/><path fill="#E48F8F" d="M85.95 61.42l37.85 36.05-41.32 35.5 3.47-71.55zm344.49-6.59l-38.11 35.79 41.08 35.79-2.97-71.58z"/><path fill="#59342A" fill-rule="nonzero" d="M144.56 257.66c5.71 1.86 8.84 8 6.98 13.72-1.86 5.71-8 8.84-13.71 6.98L7.52 236.08c-5.71-1.86-8.84-8-6.98-13.71 1.85-5.72 8-8.85 13.71-6.99l130.31 42.28zm122.08 1.66c.22 6.48 1.06 12.27 2.43 17.38 2.52 9.4 6.83 16.24 12.25 20.67 5.19 4.26 11.55 6.4 18.4 6.54 3.67.07 7.58-.44 11.61-1.52 5.69-1.52 11.55 1.86 13.07 7.56 1.52 5.69-1.87 11.55-7.56 13.07-5.85 1.56-11.74 2.3-17.53 2.19-11.65-.23-22.54-3.95-31.52-11.3-3.9-3.19-7.42-7.04-10.45-11.57-2.63 4.6-5.77 8.35-9.33 11.38-12.48 10.63-28.65 11.71-46.35 9.67-5.86-.67-10.07-5.96-9.4-11.82.67-5.85 5.96-10.06 11.82-9.39 12.48 1.43 23.39 1.09 30.15-4.66 6.66-5.68 10.81-17.2 11.03-38.2h21.38zm-84.15-81.51c10.68 0 19.33 8.65 19.33 19.33 0 10.67-8.65 19.32-19.33 19.32-10.67 0-19.32-8.65-19.32-19.32 0-10.68 8.65-19.33 19.32-19.33zm151.97 0c10.67 0 19.32 8.65 19.32 19.33 0 10.67-8.65 19.32-19.32 19.32-10.68 0-19.33-8.65-19.33-19.32 0-10.68 8.65-19.33 19.33-19.33zm39.71 100.55c-5.71 1.86-11.86-1.27-13.71-6.98-1.86-5.72 1.27-11.86 6.98-13.72l130.31-42.28c5.71-1.86 11.86 1.27 13.71 6.99 1.86 5.71-1.27 11.85-6.98 13.71l-130.31 42.28zm-4.77 41.32c-5.95-.77-10.15-6.23-9.37-12.18.77-5.95 6.23-10.15 12.18-9.37l108.82 14.55c5.95.78 10.15 6.23 9.37 12.19-.77 5.95-6.23 10.14-12.18 9.37L369.4 319.68zm-229.53-21.59c5.97-.73 11.41 3.52 12.14 9.49.73 5.98-3.52 11.42-9.5 12.14L30.92 333.59c-5.97.73-11.41-3.53-12.14-9.5-.73-5.98 3.53-11.41 9.5-12.14l111.59-13.86z"/><path fill="#A96E54" fill-rule="nonzero" d="M237.72 259.32c-7.42 0-13.43-6.01-13.43-13.42s6.01-13.43 13.43-13.43h41.52c7.41 0 13.42 6.02 13.42 13.43s-6.01 13.42-13.42 13.42h-41.52z"/></svg>